<?xml version="1.0" encoding="UTF-8" standalone="no"?>
<svg
   xmlns:dc="http://purl.org/dc/elements/1.1/"
   xmlns:cc="http://creativecommons.org/ns#"
   xmlns:rdf="http://www.w3.org/1999/02/22-rdf-syntax-ns#"
   xmlns:svg="http://www.w3.org/2000/svg"
   xmlns="http://www.w3.org/2000/svg"
   xmlns:sodipodi="http://sodipodi.sourceforge.net/DTD/sodipodi-0.dtd"
   xmlns:inkscape="http://www.inkscape.org/namespaces/inkscape"
   inkscape:version="1.0 (1.0+r73+1)"
   sodipodi:docname="logo.svg"
   xml:space="preserve"
   style="enable-background:new 0 0 200 30;"
   viewBox="0 0 200 30"
   y="0px"
   x="0px"
   id="Layer_1"
   version="1.1"><metadata
   id="metadata158"><rdf:RDF><cc:Work
       rdf:about=""><dc:format>image/svg+xml</dc:format><dc:type
         rdf:resource="http://purl.org/dc/dcmitype/StillImage" /><dc:title></dc:title></cc:Work></rdf:RDF></metadata><defs
   id="defs156" /><sodipodi:namedview
   inkscape:current-layer="Layer_1"
   inkscape:window-maximized="0"
   inkscape:window-y="0"
   inkscape:window-x="0"
   inkscape:cy="35.743302"
   inkscape:cx="100"
   inkscape:zoom="11.57"
   showgrid="false"
   id="namedview154"
   inkscape:window-height="1676"
   inkscape:window-width="3500"
   inkscape:pageshadow="2"
   inkscape:pageopacity="0"
   guidetolerance="10"
   gridtolerance="10"
   objecttolerance="10"
   borderopacity="1"
   bordercolor="#666666"
   pagecolor="#ffffff" />
<style
   id="style103"
   type="text/css">
	.st0{fill:#FFFFFF;}
	.st1{fill:#E8E8E8;}
	.st2{fill:#FFFFFF;stroke:#FFFFFF;stroke-linejoin:round;stroke-miterlimit:10;}
</style>
<g
   id="g151">
	<g
   id="g147">
		<g
   id="g131">
			<path
   id="path105"
   d="M3.13,27.79H0.49V8.69h6.85c0.77,0,1.5,0.15,2.18,0.44c0.68,0.29,1.27,0.69,1.77,1.19     c0.5,0.5,0.9,1.09,1.19,1.77c0.29,0.68,0.44,1.41,0.44,2.18c0,0.62-0.1,1.21-0.29,1.78c-0.19,0.56-0.46,1.08-0.81,1.54     c-0.35,0.46-0.76,0.86-1.23,1.21c-0.48,0.34-0.99,0.6-1.55,0.78l6.08,8.21h-1.81c-0.52,0-0.97-0.1-1.37-0.3     c-0.4-0.2-0.72-0.5-0.98-0.9l-5-6.74H3.13V27.79z M3.13,11.33v5.88h4.21c0.41,0,0.79-0.08,1.15-0.23     c0.36-0.15,0.67-0.36,0.93-0.63c0.27-0.27,0.48-0.58,0.63-0.93c0.16-0.36,0.23-0.74,0.23-1.15c0-0.41-0.08-0.79-0.23-1.15     c-0.16-0.36-0.37-0.67-0.63-0.93c-0.27-0.27-0.58-0.48-0.93-0.63c-0.36-0.16-0.74-0.23-1.15-0.23H3.13z"
   class="st0" />
			<path
   id="path107"
   d="M15.7,20.79c0-0.99,0.19-1.92,0.57-2.79c0.38-0.88,0.89-1.64,1.55-2.29c0.65-0.65,1.42-1.17,2.29-1.55     c0.88-0.38,1.81-0.57,2.79-0.57c0.99,0,1.92,0.19,2.79,0.57c0.88,0.38,1.64,0.89,2.29,1.55c0.65,0.65,1.17,1.42,1.55,2.29     c0.38,0.88,0.57,1.81,0.57,2.79c0,0.99-0.19,1.92-0.57,2.79c-0.38,0.88-0.89,1.64-1.55,2.29c-0.65,0.65-1.42,1.17-2.29,1.55     c-0.88,0.38-1.81,0.57-2.79,0.57c-0.99,0-1.92-0.19-2.79-0.57c-0.88-0.38-1.64-0.89-2.29-1.55c-0.65-0.65-1.17-1.42-1.55-2.29     C15.88,22.71,15.7,21.78,15.7,20.79z M18.27,20.79c0,0.64,0.12,1.24,0.37,1.8c0.24,0.56,0.58,1.05,0.99,1.47     c0.42,0.42,0.91,0.75,1.47,0.99c0.56,0.24,1.16,0.37,1.8,0.37c0.64,0,1.24-0.12,1.8-0.37c0.56-0.24,1.05-0.58,1.47-0.99     c0.42-0.42,0.75-0.91,0.99-1.47c0.24-0.56,0.37-1.16,0.37-1.8c0-0.64-0.12-1.24-0.37-1.8s-0.58-1.05-0.99-1.47     c-0.42-0.42-0.91-0.75-1.47-0.99c-0.56-0.24-1.16-0.37-1.8-0.37c-0.64,0-1.24,0.12-1.8,0.37c-0.56,0.24-1.05,0.58-1.47,0.99     c-0.42,0.42-0.75,0.91-0.99,1.47C18.39,19.55,18.27,20.15,18.27,20.79z"
   class="st0" />
			<path
   id="path109"
   d="M42.39,27.79c-0.08-0.12-0.14-0.22-0.19-0.32c-0.05-0.1-0.1-0.22-0.14-0.35c-0.04-0.14-0.07-0.29-0.07-0.45     v-0.57c-0.16,0.32-0.38,0.6-0.67,0.83c-0.28,0.24-0.6,0.43-0.96,0.59c-0.36,0.16-0.74,0.27-1.15,0.35     c-0.41,0.08-0.83,0.12-1.26,0.12c-0.79,0-1.51-0.15-2.15-0.44s-1.2-0.71-1.65-1.25c-0.46-0.54-0.81-1.2-1.07-1.97     c-0.25-0.77-0.38-1.63-0.38-2.58v-7.96h2.64v7.96c0,1.16,0.21,2.08,0.64,2.74c0.43,0.66,1.08,0.99,1.97,0.99     c0.53,0,1.04-0.06,1.51-0.19c0.48-0.13,0.9-0.3,1.27-0.53c0.37-0.22,0.66-0.48,0.89-0.77c0.22-0.29,0.35-0.6,0.37-0.92v-9.28     h2.64v13.99H42.39z"
   class="st0" />
			<path
   id="path111"
   d="M51.93,24.25c0,0.14,0.02,0.28,0.07,0.43c0.04,0.14,0.11,0.27,0.19,0.39c0.08,0.12,0.18,0.22,0.3,0.29     s0.26,0.11,0.42,0.11l0.32-0.04c0.38-0.11,0.72-0.16,1-0.16c0.36,0,0.68,0.09,0.96,0.28c0.28,0.19,0.51,0.42,0.69,0.69l0.32,0.47     c-0.16,0.16-0.38,0.32-0.65,0.47c-0.27,0.16-0.56,0.29-0.87,0.41c-0.31,0.12-0.62,0.21-0.93,0.28c-0.32,0.07-0.6,0.11-0.85,0.11     c-0.56,0-1.06-0.09-1.51-0.28c-0.44-0.19-0.82-0.44-1.13-0.77c-0.31-0.33-0.55-0.72-0.72-1.18c-0.17-0.46-0.25-0.96-0.25-1.5     v-7.94h-2.33v-1.44c0-0.74,0.68-1.11,2.04-1.11h0.29v-2.88c0-0.28,0.03-0.55,0.1-0.8c0.07-0.25,0.14-0.46,0.22-0.64     c0.1-0.21,0.2-0.4,0.32-0.57h2v4.9h3.88v2.53h-3.88V24.25z"
   class="st0" />
			<path
   id="path113"
   d="M71.34,19.6c0,0.31-0.06,0.59-0.18,0.83c-0.12,0.24-0.27,0.45-0.45,0.63c-0.18,0.17-0.38,0.31-0.59,0.4     c-0.22,0.09-0.42,0.14-0.62,0.14h-9.73c0.08,0.54,0.26,1.04,0.53,1.51c0.28,0.46,0.62,0.86,1.03,1.21     c0.41,0.34,0.87,0.61,1.39,0.81c0.52,0.2,1.05,0.29,1.61,0.29c0.41,0,0.8-0.05,1.18-0.15c0.38-0.1,0.74-0.25,1.07-0.43     c0.18-0.1,0.35-0.17,0.52-0.21c0.17-0.04,0.36-0.07,0.56-0.07c0.28,0,0.54,0.05,0.77,0.16c0.23,0.11,0.45,0.26,0.65,0.47     l0.51,0.51c-0.67,0.71-1.45,1.27-2.35,1.69c-0.9,0.41-1.87,0.62-2.92,0.62c-0.99,0-1.92-0.19-2.79-0.57     c-0.88-0.38-1.64-0.89-2.29-1.55c-0.65-0.65-1.17-1.42-1.55-2.29c-0.38-0.87-0.57-1.81-0.57-2.79c0-0.99,0.19-1.92,0.57-2.79     c0.38-0.88,0.89-1.64,1.55-2.29c0.65-0.65,1.42-1.17,2.29-1.55c0.88-0.38,1.81-0.57,2.79-0.57c0.83,0,1.62,0.14,2.37,0.41     c0.76,0.28,1.44,0.65,2.05,1.13c0.61,0.48,1.14,1.05,1.58,1.71c0.44,0.66,0.76,1.37,0.95,2.15c0.03,0.1,0.04,0.2,0.04,0.31     C71.32,19.4,71.33,19.51,71.34,19.6z M60.77,19.03h7.84c-0.18-0.42-0.41-0.8-0.69-1.15c-0.28-0.35-0.61-0.65-0.98-0.91     c-0.37-0.25-0.78-0.45-1.22-0.59s-0.91-0.21-1.39-0.21c-0.52,0-1.02,0.08-1.5,0.25s-0.91,0.39-1.29,0.69     c-0.39,0.29-0.72,0.64-1,1.05c-0.28,0.4-0.49,0.85-0.63,1.33c0.07-0.1,0.18-0.2,0.32-0.29C60.36,19.08,60.55,19.03,60.77,19.03z"
   class="st0" />
			<path
   id="path115"
   d="M76.49,13.79c0.08,0.12,0.14,0.22,0.19,0.32c0.05,0.1,0.1,0.22,0.14,0.35c0.04,0.14,0.07,0.29,0.07,0.45     v0.97c0.16-0.32,0.38-0.62,0.67-0.89c0.28-0.27,0.6-0.52,0.96-0.73c0.36-0.21,0.74-0.37,1.15-0.49c0.41-0.12,0.83-0.18,1.26-0.18     c0.72,0,1.4,0.13,2.04,0.39l-0.2,1.13c-0.07,0.37-0.23,0.66-0.48,0.87c-0.25,0.21-0.56,0.31-0.92,0.31c-0.04,0-0.07,0-0.08-0.01     c-0.01,0-0.02-0.01-0.05-0.01c-0.02,0-0.06,0-0.1-0.01c-0.04,0-0.12-0.01-0.24-0.01c-0.53,0-1.04,0.08-1.51,0.23     c-0.48,0.16-0.89,0.36-1.25,0.61c-0.36,0.25-0.65,0.53-0.87,0.85c-0.22,0.32-0.35,0.63-0.37,0.95v8.88h-2.64V13.79H76.49z"
   class="st0" />
			<path
   id="path117"
   d="M100.16,27.79h-1.65l-11.53-16.5c-0.04-0.05-0.08-0.12-0.11-0.19c-0.03-0.07-0.05-0.14-0.08-0.21     c-0.04-0.08-0.06-0.16-0.08-0.24v17.14h-1.67V8.69h1.16c0.36,0,0.64,0.04,0.85,0.13c0.21,0.09,0.38,0.23,0.53,0.43l10.56,15.11     c0.06,0.1,0.12,0.2,0.16,0.3c0.04,0.1,0.08,0.2,0.12,0.29c0.04,0.1,0.07,0.2,0.09,0.31V8.69h1.65V27.79z"
   class="st1" />
			<path
   id="path119"
   d="M110.71,13.58c0.84,0,1.63,0.14,2.38,0.41c0.75,0.27,1.43,0.65,2.03,1.13c0.6,0.48,1.12,1.05,1.55,1.71     c0.43,0.66,0.75,1.38,0.97,2.17c0.04,0.18,0.07,0.33,0.07,0.47c0,0.23-0.04,0.45-0.13,0.65c-0.08,0.2-0.2,0.38-0.34,0.53     c-0.14,0.16-0.31,0.28-0.51,0.37c-0.2,0.09-0.4,0.13-0.63,0.13h-10.89c0.04,0.74,0.2,1.42,0.51,2.05c0.3,0.63,0.7,1.17,1.19,1.63     c0.49,0.46,1.06,0.82,1.71,1.08c0.65,0.26,1.35,0.39,2.09,0.39c0.23,0,0.48-0.03,0.75-0.08c0.27-0.05,0.54-0.13,0.81-0.22     c0.27-0.09,0.54-0.2,0.8-0.33c0.26-0.12,0.5-0.26,0.73-0.4c0.12-0.08,0.26-0.14,0.42-0.17c0.16-0.04,0.3-0.05,0.45-0.05     c0.14,0,0.27,0.02,0.38,0.05c0.11,0.03,0.21,0.08,0.31,0.13c0.1,0.06,0.19,0.13,0.29,0.21c0.09,0.08,0.2,0.16,0.31,0.25     c-0.33,0.33-0.69,0.63-1.09,0.91c-0.4,0.28-0.83,0.52-1.28,0.73c-0.45,0.21-0.92,0.37-1.41,0.49c-0.48,0.12-0.98,0.18-1.47,0.18     c-0.67,0-1.31-0.09-1.92-0.26c-0.61-0.17-1.19-0.42-1.72-0.73c-0.53-0.31-1.02-0.69-1.46-1.13c-0.44-0.44-0.82-0.93-1.13-1.46     c-0.32-0.53-0.56-1.11-0.73-1.73c-0.17-0.62-0.26-1.25-0.26-1.91c0-1,0.19-1.93,0.57-2.81c0.38-0.88,0.9-1.64,1.56-2.29     c0.66-0.65,1.42-1.17,2.3-1.55C108.79,13.77,109.72,13.58,110.71,13.58z M110.72,15.29c-0.71,0-1.38,0.12-2,0.36     c-0.62,0.24-1.17,0.57-1.66,0.99c-0.48,0.42-0.88,0.92-1.2,1.5c-0.32,0.58-0.52,1.2-0.61,1.88c0.04-0.12,0.12-0.24,0.23-0.39     c0.11-0.14,0.27-0.21,0.47-0.21h10.02c-0.16-0.66-0.41-1.24-0.75-1.75c-0.34-0.51-0.75-0.94-1.22-1.3     c-0.47-0.36-0.99-0.62-1.55-0.81C111.89,15.38,111.31,15.29,110.72,15.29z"
   class="st1" />
			<path
   id="path121"
   d="M122.65,24.53c0,0.21,0.04,0.43,0.11,0.66c0.08,0.23,0.18,0.43,0.33,0.62c0.14,0.19,0.32,0.34,0.53,0.45     c0.21,0.12,0.45,0.17,0.73,0.17l0.41-0.05c0.38-0.11,0.7-0.16,0.95-0.16c0.28,0,0.52,0.08,0.74,0.24     c0.22,0.16,0.41,0.36,0.58,0.59l0.04,0.05c-0.19,0.12-0.4,0.24-0.64,0.35c-0.24,0.11-0.49,0.2-0.74,0.28     c-0.25,0.08-0.5,0.14-0.75,0.19c-0.24,0.05-0.46,0.07-0.66,0.07c-0.52,0-0.98-0.09-1.39-0.25c-0.41-0.17-0.76-0.41-1.05-0.71     c-0.29-0.31-0.51-0.67-0.67-1.1c-0.16-0.43-0.23-0.89-0.23-1.4v-9.17h-2.53v-0.99c0-0.41,0.55-0.61,1.64-0.61h0.89v-3.16     c0-0.4,0.05-0.73,0.15-1c0.1-0.27,0.19-0.47,0.27-0.6h1.28v4.77h4.2v1.59h-4.2V24.53z"
   class="st1" />
			<path
   id="path123"
   d="M127.62,13.79h0.75c0.34,0,0.65,0.09,0.94,0.27c0.29,0.18,0.49,0.41,0.62,0.71l4.56,10.48     c0.09,0.2,0.15,0.39,0.17,0.56c0.03,0.17,0.04,0.28,0.05,0.32c0.02-0.19,0.04-0.34,0.07-0.47c0.03-0.12,0.08-0.26,0.15-0.41     l4.62-10.48c0.13-0.3,0.34-0.54,0.61-0.72c0.28-0.18,0.58-0.27,0.91-0.27h0.76c-0.3,0.69-0.6,1.37-0.89,2.03     c-0.29,0.66-0.58,1.32-0.86,1.97l3.25,7.46c0.09,0.2,0.15,0.39,0.17,0.56c0.03,0.17,0.04,0.28,0.05,0.32     c0.02-0.19,0.04-0.34,0.07-0.47c0.03-0.12,0.08-0.26,0.15-0.41l4.62-10.48c0.13-0.3,0.34-0.54,0.61-0.72     c0.28-0.18,0.58-0.27,0.91-0.27h0.76c-0.53,1.23-1.05,2.43-1.56,3.58c-0.51,1.16-1.01,2.3-1.51,3.44c-0.5,1.14-1,2.28-1.5,3.43     c-0.5,1.15-1.02,2.33-1.55,3.56h-2l-3.16-7.26c-0.04-0.1-0.08-0.2-0.09-0.29c-0.02-0.1-0.03-0.2-0.03-0.29     c0-0.09,0-0.17,0.01-0.25c0.01-0.08,0.02-0.14,0.04-0.19c0.02-0.06,0.04-0.12,0.05-0.17c-0.28,0.64-0.58,1.31-0.89,2.02     c-0.31,0.71-0.62,1.42-0.94,2.15c-0.32,0.72-0.64,1.45-0.95,2.17c-0.32,0.72-0.62,1.43-0.91,2.13h-2L127.62,13.79z"
   class="st1" />
			<path
   id="path125"
   d="M150.63,20.79c0-0.66,0.09-1.3,0.26-1.91c0.17-0.62,0.42-1.19,0.73-1.73c0.32-0.53,0.69-1.02,1.13-1.46     c0.44-0.44,0.93-0.82,1.46-1.13c0.53-0.31,1.11-0.55,1.72-0.73c0.61-0.17,1.25-0.26,1.91-0.26c0.99,0,1.93,0.19,2.81,0.57     c0.87,0.38,1.64,0.89,2.29,1.55c0.65,0.65,1.17,1.42,1.55,2.29c0.38,0.88,0.57,1.81,0.57,2.81s-0.19,1.93-0.57,2.81     c-0.38,0.88-0.89,1.64-1.55,2.29c-0.65,0.65-1.42,1.17-2.29,1.55c-0.88,0.38-1.81,0.57-2.81,0.57c-0.66,0-1.29-0.09-1.91-0.26     c-0.61-0.17-1.19-0.42-1.72-0.73c-0.53-0.31-1.02-0.69-1.46-1.13c-0.44-0.44-0.82-0.93-1.13-1.46c-0.32-0.53-0.56-1.11-0.73-1.73     C150.72,22.08,150.63,21.45,150.63,20.79z M152.34,20.79c0,0.77,0.14,1.49,0.43,2.16s0.68,1.25,1.17,1.75     c0.5,0.5,1.08,0.89,1.75,1.17c0.67,0.28,1.39,0.43,2.15,0.43c0.77,0,1.49-0.14,2.16-0.43c0.67-0.28,1.25-0.68,1.75-1.17     c0.5-0.5,0.89-1.08,1.17-1.75c0.28-0.67,0.43-1.39,0.43-2.16s-0.14-1.49-0.43-2.16c-0.28-0.67-0.68-1.25-1.17-1.75     c-0.5-0.5-1.08-0.89-1.75-1.17c-0.67-0.28-1.39-0.43-2.16-0.43c-0.76,0-1.48,0.14-2.15,0.43c-0.67,0.28-1.26,0.68-1.75,1.17     c-0.5,0.5-0.89,1.08-1.17,1.75C152.48,19.3,152.34,20.02,152.34,20.79z"
   class="st1" />
			<path
   id="path127"
   d="M168.85,13.79c0.04,0.09,0.08,0.18,0.12,0.29s0.05,0.22,0.05,0.35V16c0.17-0.35,0.43-0.67,0.77-0.97     c0.35-0.3,0.74-0.56,1.19-0.77c0.44-0.22,0.92-0.39,1.44-0.51c0.51-0.12,1.03-0.18,1.55-0.18c0.54,0,1.06,0.08,1.56,0.23     l-0.13,0.73c-0.04,0.2-0.09,0.35-0.17,0.45c-0.08,0.11-0.18,0.18-0.29,0.23c-0.11,0.05-0.24,0.08-0.37,0.09     c-0.14,0.01-0.28,0.01-0.42,0.01h-0.2c-0.65,0-1.26,0.11-1.85,0.32c-0.58,0.21-1.1,0.49-1.55,0.83     c-0.45,0.34-0.81,0.72-1.08,1.14c-0.27,0.42-0.42,0.84-0.45,1.26v8.92h-1.71V13.79H168.85z"
   class="st1" />
			<path
   id="path129"
   d="M179.49,27.79h-1.71V8.69h1.71V27.79z M185.83,14.85c0.28-0.32,0.57-0.58,0.89-0.77     c0.32-0.19,0.71-0.29,1.17-0.29h1.13c-0.81,0.91-1.58,1.77-2.32,2.59c-0.31,0.35-0.63,0.7-0.96,1.06     c-0.33,0.36-0.64,0.7-0.94,1.03c-0.3,0.33-0.58,0.64-0.83,0.92c-0.26,0.28-0.47,0.52-0.64,0.71c-0.1,0.11-0.19,0.19-0.27,0.25     c-0.08,0.06-0.14,0.11-0.19,0.15c-0.06,0.04-0.11,0.06-0.15,0.07c0.07,0.04,0.14,0.08,0.21,0.12c0.06,0.04,0.13,0.09,0.19,0.15     c0.07,0.05,0.14,0.12,0.21,0.2c0.39,0.5,0.85,1.03,1.37,1.59c0.52,0.56,1.06,1.14,1.61,1.73c0.55,0.59,1.08,1.18,1.6,1.77     c0.52,0.59,0.97,1.14,1.37,1.67h-1.04c-0.45,0-0.84-0.1-1.16-0.29c-0.32-0.19-0.62-0.44-0.91-0.75l-5.25-5.78     c-0.07-0.07-0.14-0.13-0.21-0.18c-0.07-0.05-0.14-0.09-0.2-0.13c-0.07-0.04-0.14-0.07-0.21-0.09c0.07-0.02,0.14-0.04,0.21-0.08     c0.06-0.03,0.13-0.07,0.2-0.12c0.07-0.05,0.14-0.12,0.21-0.19L185.83,14.85z"
   class="st1" />
		</g>
		<g
   id="g145">
			<g
   id="g135">
				<path
   id="path133"
   d="M198.17,12.21c-0.5-2.8-2.06-5.23-4.39-6.85s-5.15-2.24-7.94-1.74l-0.15-0.83      c3.02-0.54,6.06,0.12,8.57,1.87c2.51,1.75,4.19,4.37,4.73,7.39L198.17,12.21z"
   class="st2" />
			</g>
			<g
   id="g139">
				<path
   id="path137"
   d="M195.04,12.81c-0.73-4.06-4.62-6.77-8.68-6.04l-0.15-0.83c4.51-0.81,8.84,2.21,9.65,6.72L195.04,12.81z"
   class="st2" />
			</g>
			<g
   id="g143">
				<path
   id="path141"
   d="M192.42,14.06c-0.53-2.95-3.36-4.92-6.31-4.4l-0.15-0.83c1.65-0.3,3.32,0.07,4.7,1.03      c1.38,0.96,2.3,2.4,2.59,4.05L192.42,14.06z"
   class="st2" />
			</g>
		</g>
	</g>
	<path
   class="st1"
   d="m 189.11,13.96 a 1.42,1.42 0 0 1 -1.42,1.42 1.42,1.42 0 0 1 -1.42,-1.42 1.42,1.42 0 0 1 1.42,-1.42 1.42,1.42 0 0 1 1.42,1.42"
   style="fill:#e8e8e8"
   id="circle149" />
</g>
</svg>
